<svg width="128" height="128" viewBox="0 0 128 128" fill="none" xmlns="http://www.w3.org/2000/svg">
<rect width="128" height="128" fill="#1E1E1E"/>
<path d="M21.5881 70.448C19.8175 70.448 18.1748 70.1707 16.6601 69.616C15.1455 69.04 13.8335 68.2293 12.7241 67.184C11.6361 66.1387 10.7828 64.912 10.1641 63.504C9.54546 62.0747 9.23612 60.5067 9.23612 58.8C9.23612 57.0933 9.54546 55.536 10.1641 54.128C10.7828 52.6987 11.6468 51.4613 12.7561 50.416C13.8655 49.3707 15.1775 48.5707 16.6921 48.016C18.2281 47.44 19.9028 47.152 21.7161 47.152C23.8281 47.152 25.7161 47.504 27.3801 48.208C29.0441 48.912 30.4201 49.9253 31.5081 51.248L27.4761 54.896C26.7081 54.064 25.8761 53.4453 24.9801 53.04C24.1055 52.6133 23.1241 52.4 22.0361 52.4C21.0761 52.4 20.2015 52.5493 19.4121 52.848C18.6228 53.1467 17.9508 53.584 17.3961 54.16C16.8415 54.7147 16.4041 55.3867 16.0841 56.176C15.7855 56.944 15.6361 57.8187 15.6361 58.8C15.6361 59.7387 15.7855 60.6027 16.0841 61.392C16.4041 62.1813 16.8415 62.864 17.3961 63.44C17.9508 63.9947 18.6121 64.432 19.3801 64.752C20.1695 65.0507 21.0335 65.2 21.9721 65.2C22.9108 65.2 23.8281 65.0507 24.7241 64.752C25.6201 64.432 26.5268 63.8987 27.4441 63.152L30.9961 67.6C29.7161 68.5173 28.2335 69.2213 26.5481 69.712C24.8628 70.2027 23.2095 70.448 21.5881 70.448ZM25.3961 66.768V58.32H30.9961V67.6L25.3961 66.768ZM45.7971 65.04L45.4451 57.936L55.0771 47.6H62.0531L52.4531 58L48.9331 61.68L45.7971 65.04ZM40.1331 70V47.6H46.4051V70H40.1331ZM55.1731 70L47.8771 60.752L52.0051 56.336L62.5331 70H55.1731ZM74.9796 65.04L74.6276 57.936L84.2596 47.6H91.2356L81.6356 58L78.1156 61.68L74.9796 65.04ZM69.3156 70V47.6H75.5876V70H69.3156ZM84.3556 70L77.0596 60.752L81.1876 56.336L91.7156 70H84.3556ZM98.4981 70V47.6H109.954C112.898 47.6 115.095 48.144 116.546 49.232C117.997 50.2987 118.722 51.7067 118.722 53.456C118.722 54.608 118.413 55.6213 117.794 56.496C117.197 57.3493 116.343 58.032 115.234 58.544C114.146 59.0347 112.845 59.28 111.33 59.28L111.97 57.744C113.549 57.744 114.925 57.9893 116.098 58.48C117.271 58.9493 118.178 59.6427 118.818 60.56C119.479 61.456 119.81 62.5547 119.81 63.856C119.81 65.7973 119.021 67.312 117.442 68.4C115.885 69.4667 113.602 70 110.594 70H98.4981ZM104.77 65.424H110.082C111.17 65.424 111.991 65.2427 112.546 64.88C113.122 64.496 113.41 63.92 113.41 63.152C113.41 62.384 113.122 61.8187 112.546 61.456C111.991 61.072 111.17 60.88 110.082 60.88H104.322V56.496H109.122C110.189 56.496 110.989 56.3147 111.522 55.952C112.055 55.5893 112.322 55.0453 112.322 54.32C112.322 53.5947 112.055 53.0613 111.522 52.72C110.989 52.3573 110.189 52.176 109.122 52.176H104.77V65.424Z" fill="#906565"/>
<path d="M13.0669 82.12C12.5309 82.12 12.0349 82.016 11.5789 81.808C11.1309 81.6 10.7629 81.3 10.4749 80.908L11.3629 79.84C11.5949 80.16 11.8469 80.4 12.1189 80.56C12.3989 80.72 12.7029 80.8 13.0309 80.8C13.9029 80.8 14.3389 80.284 14.3389 79.252V74.908H11.3509V73.6H15.8989V79.168C15.8989 80.16 15.6549 80.9 15.1669 81.388C14.6869 81.876 13.9869 82.12 13.0669 82.12ZM19.527 77.092H23.703V78.376H19.527V77.092ZM19.647 80.692H24.387V82H18.087V73.6H24.219V74.908H19.647V80.692ZM26.126 82V73.6H27.41L31.082 79.732H30.41L34.022 73.6H35.306L35.318 82H33.842L33.83 75.916H34.142L31.07 81.04H30.374L27.254 75.916H27.614V82H26.126ZM36.399 82L40.179 73.6H41.715L45.507 82H43.875L40.623 74.428H41.247L38.007 82H36.399ZM38.139 80.056L38.559 78.832H43.095L43.515 80.056H38.139ZM45.5982 82L49.3782 73.6H50.9142L54.7062 82H53.0742L49.8222 74.428H50.4462L47.2062 82H45.5982ZM47.3382 80.056L47.7582 78.832H52.2942L52.7142 80.056H47.3382ZM57.0566 82V74.92H54.2726V73.6H61.4006V74.92H58.6166V82H57.0566ZM68.4918 82.12C67.8358 82.12 67.2078 82.028 66.6078 81.844C66.0078 81.652 65.5318 81.408 65.1798 81.112L65.7198 79.9C66.0558 80.164 66.4718 80.384 66.9678 80.56C67.4638 80.736 67.9718 80.824 68.4918 80.824C68.9318 80.824 69.2878 80.776 69.5598 80.68C69.8318 80.584 70.0318 80.456 70.1598 80.296C70.2878 80.128 70.3518 79.94 70.3518 79.732C70.3518 79.476 70.2598 79.272 70.0758 79.12C69.8918 78.96 69.6518 78.836 69.3558 78.748C69.0678 78.652 68.7438 78.564 68.3838 78.484C68.0318 78.404 67.6758 78.312 67.3158 78.208C66.9638 78.096 66.6398 77.956 66.3438 77.788C66.0558 77.612 65.8198 77.38 65.6358 77.092C65.4518 76.804 65.3598 76.436 65.3598 75.988C65.3598 75.532 65.4798 75.116 65.7198 74.74C65.9678 74.356 66.3398 74.052 66.8358 73.828C67.3398 73.596 67.9758 73.48 68.7438 73.48C69.2478 73.48 69.7478 73.544 70.2438 73.672C70.7398 73.8 71.1718 73.984 71.5398 74.224L71.0478 75.436C70.6718 75.212 70.2838 75.048 69.8838 74.944C69.4838 74.832 69.0998 74.776 68.7318 74.776C68.2998 74.776 67.9478 74.828 67.6758 74.932C67.4118 75.036 67.2158 75.172 67.0878 75.34C66.9678 75.508 66.9078 75.7 66.9078 75.916C66.9078 76.172 66.9958 76.38 67.1718 76.54C67.3558 76.692 67.5918 76.812 67.8798 76.9C68.1758 76.988 68.5038 77.076 68.8638 77.164C69.2238 77.244 69.5798 77.336 69.9318 77.44C70.2918 77.544 70.6158 77.68 70.9038 77.848C71.1998 78.016 71.4358 78.244 71.6118 78.532C71.7958 78.82 71.8878 79.184 71.8878 79.624C71.8878 80.072 71.7638 80.488 71.5158 80.872C71.2758 81.248 70.9038 81.552 70.3998 81.784C69.8958 82.008 69.2598 82.12 68.4918 82.12ZM74.8746 77.092H79.0506V78.376H74.8746V77.092ZM74.9946 80.692H79.7346V82H73.4346V73.6H79.5666V74.908H74.9946V80.692ZM81.4737 82V73.6H84.9297C85.6737 73.6 86.3097 73.72 86.8377 73.96C87.3737 74.2 87.7857 74.544 88.0737 74.992C88.3617 75.44 88.5057 75.972 88.5057 76.588C88.5057 77.204 88.3617 77.736 88.0737 78.184C87.7857 78.624 87.3737 78.964 86.8377 79.204C86.3097 79.436 85.6737 79.552 84.9297 79.552H82.3377L83.0337 78.844V82H81.4737ZM86.9697 82L84.8457 78.952H86.5137L88.6497 82H86.9697ZM83.0337 79.012L82.3377 78.268H84.8577C85.5457 78.268 86.0617 78.12 86.4057 77.824C86.7577 77.528 86.9337 77.116 86.9337 76.588C86.9337 76.052 86.7577 75.64 86.4057 75.352C86.0617 75.064 85.5457 74.92 84.8577 74.92H82.3377L83.0337 74.152V79.012ZM90.251 82V73.6H93.923C94.835 73.6 95.635 73.776 96.323 74.128C97.011 74.48 97.547 74.968 97.931 75.592C98.315 76.216 98.507 76.952 98.507 77.8C98.507 78.64 98.315 79.376 97.931 80.008C97.547 80.632 97.011 81.12 96.323 81.472C95.635 81.824 94.835 82 93.923 82H90.251ZM91.811 80.68H93.851C94.483 80.68 95.027 80.56 95.483 80.32C95.947 80.08 96.303 79.744 96.551 79.312C96.807 78.88 96.935 78.376 96.935 77.8C96.935 77.216 96.807 76.712 96.551 76.288C96.303 75.856 95.947 75.52 95.483 75.28C95.027 75.04 94.483 74.92 93.851 74.92H91.811V80.68ZM98.8599 82L102.64 73.6H104.176L107.968 82H106.336L103.084 74.428H103.708L100.468 82H98.8599ZM100.6 80.056L101.02 78.832H105.556L105.976 80.056H100.6ZM109.036 82V73.6H110.32L113.992 79.732H113.32L116.932 73.6H118.216L118.228 82H116.752L116.74 75.916H117.052L113.98 81.04H113.284L110.164 75.916H110.524V82H109.036Z" fill="#CD2929"/>
</svg>
